# xmcd
#
# Track frame offsets:
#	150
#	11040
#	36587
#	47052
#	60990
#	76612
#	86985
#	100587
#	110160
#	120692
#	131900
#	148070
#	160322
#	180330
#
# Disc length: 2673 seconds
#
# Revision: 0
# Processed by: cddbd v1.4PL0 Copyright (c) Steve Scherf et al.
# Submitted via: dBpowerAMP V4.0
#
DISCID=bd0a6f0e
DTITLE=Eric Clapton - Eric Clapton and Friends
DYEAR=1999
DGENRE=Blues
TTITLE0=Boom Boom (Out Goes The Light)
TTITLE1=Take It Easy Baby
TTITLE2=A Certain Gils - With The Yardbirds
TTITLE3=Draggin' My Tail - With Jimmy Page
TTITLE4=Louise (Louise Blues) - With Jack Bruce and Ginger Baker
TTITLE5=Putty In Your Hands
TTITLE6=Jeff's Blues - With Jeff Beck
TTITLE7=Tribute To Elmore - With Jimmy Page
TTITLE8=West Coast Idea - With The Yardbirds
TTITLE9=Miles Roads - With The Yardbirds
TTITLE10=Little Red Rooster - With Jimmy Page
TTITLE11=Highway 49 - With Jimmy Page
TTITLE12=Wang Dang Doodle - With Jimmy Page
TTITLE13=Goodbye Baby - Evil Hearted Woman - Good Morning Little School Girl
EXTD=\n
EXTT0=
EXTT1=
EXTT2=
EXTT3=
EXTT4=
EXTT5=
EXTT6=
EXTT7=
EXTT8=
EXTT9=
EXTT10=
EXTT11=
EXTT12=
EXTT13=
PLAYORDER=
